<svg width="18" height="18" viewBox="0 0 18 18" fill="none" xmlns="http://www.w3.org/2000/svg">
<path fill-rule="evenodd" clip-rule="evenodd" d="M8.99999 17.3337C13.6024 17.3337 17.3333 13.6027 17.3333 9.00033C17.3333 4.39795 13.6024 0.666992 8.99999 0.666992C4.39762 0.666992 0.666656 4.39795 0.666656 9.00033C0.666656 13.6027 4.39762 17.3337 8.99999 17.3337ZM8.16666 8.58366C8.16666 8.12342 8.53975 7.75033 8.99999 7.75033C9.46023 7.75033 9.83332 8.12342 9.83332 8.58366V12.3337C9.83332 12.7939 9.46023 13.167 8.99999 13.167C8.53975 13.167 8.16666 12.7939 8.16666 12.3337V8.58366ZM8.99999 4.83366C8.53975 4.83366 8.16666 5.20675 8.16666 5.66699C8.16666 6.12723 8.53975 6.50033 8.99999 6.50033C9.46023 6.50033 9.83332 6.12723 9.83332 5.66699C9.83332 5.20675 9.46023 4.83366 8.99999 4.83366Z" fill="#f44336"/>
</svg>
